<mxfile host="app.diagrams.net" modified="2023-12-08T01:31:56.298Z" agent="Mozilla/5.0 (Windows NT 10.0; Win64; x64) AppleWebKit/537.36 (KHTML, like Gecko) Chrome/119.0.0.0 Safari/537.36" etag="lD9E7sp49EOrWfpfk-5c" version="22.1.7" type="github">
  <diagram name="第 1 页" id="OdKYLB2-9izrh4cZaHGk">
    <mxGraphModel dx="2566" dy="608" grid="1" gridSize="10" guides="1" tooltips="1" connect="1" arrows="1" fold="1" page="1" pageScale="1" pageWidth="827" pageHeight="1169" math="0" shadow="0">
      <root>
        <mxCell id="0" />
        <mxCell id="1" parent="0" />
        <mxCell id="9LEnUv4450Ojj1wTjqpc-3" style="edgeStyle=orthogonalEdgeStyle;rounded=0;orthogonalLoop=1;jettySize=auto;html=1;exitX=1;exitY=0.5;exitDx=0;exitDy=0;fontSize=14;" edge="1" parent="1" source="9LEnUv4450Ojj1wTjqpc-4">
          <mxGeometry relative="1" as="geometry">
            <mxPoint x="-873" y="970" as="targetPoint" />
          </mxGeometry>
        </mxCell>
        <mxCell id="9LEnUv4450Ojj1wTjqpc-4" value="购买&lt;br&gt;（产生订单）" style="rounded=1;whiteSpace=wrap;html=1;fontStyle=1;fontSize=14;fillColor=#ffe6cc;strokeColor=#d79b00;" vertex="1" parent="1">
          <mxGeometry x="-1053" y="940" width="120" height="60" as="geometry" />
        </mxCell>
        <mxCell id="9LEnUv4450Ojj1wTjqpc-7" style="edgeStyle=orthogonalEdgeStyle;rounded=0;orthogonalLoop=1;jettySize=auto;html=1;exitX=0.5;exitY=0;exitDx=0;exitDy=0;entryX=0.5;entryY=1;entryDx=0;entryDy=0;fontSize=14;" edge="1" parent="1" source="9LEnUv4450Ojj1wTjqpc-8" target="9LEnUv4450Ojj1wTjqpc-10">
          <mxGeometry relative="1" as="geometry" />
        </mxCell>
        <mxCell id="9LEnUv4450Ojj1wTjqpc-8" value="点击支付，&lt;br&gt;产生订单" style="rounded=1;whiteSpace=wrap;html=1;fontStyle=1;fontSize=14;fillColor=#ffe6cc;strokeColor=#d79b00;" vertex="1" parent="1">
          <mxGeometry x="-873" y="940" width="120" height="60" as="geometry" />
        </mxCell>
        <mxCell id="9LEnUv4450Ojj1wTjqpc-9" style="edgeStyle=orthogonalEdgeStyle;rounded=0;orthogonalLoop=1;jettySize=auto;html=1;exitX=1;exitY=0.5;exitDx=0;exitDy=0;entryX=0;entryY=0.5;entryDx=0;entryDy=0;fontSize=14;" edge="1" parent="1" source="9LEnUv4450Ojj1wTjqpc-10" target="9LEnUv4450Ojj1wTjqpc-12">
          <mxGeometry relative="1" as="geometry" />
        </mxCell>
        <mxCell id="9LEnUv4450Ojj1wTjqpc-10" value="支付宝沙箱登录" style="rounded=1;whiteSpace=wrap;html=1;fontStyle=1;fontSize=14;fillColor=#dae8fc;strokeColor=#6c8ebf;" vertex="1" parent="1">
          <mxGeometry x="-873" y="750" width="120" height="60" as="geometry" />
        </mxCell>
        <mxCell id="9LEnUv4450Ojj1wTjqpc-11" style="edgeStyle=orthogonalEdgeStyle;rounded=0;orthogonalLoop=1;jettySize=auto;html=1;exitX=0.5;exitY=1;exitDx=0;exitDy=0;fontSize=14;entryX=0.5;entryY=0;entryDx=0;entryDy=0;" edge="1" parent="1" source="9LEnUv4450Ojj1wTjqpc-12" target="9LEnUv4450Ojj1wTjqpc-25">
          <mxGeometry relative="1" as="geometry">
            <mxPoint x="-573" y="870" as="targetPoint" />
          </mxGeometry>
        </mxCell>
        <mxCell id="9LEnUv4450Ojj1wTjqpc-12" value="输入支付密码&lt;br&gt;完成支付" style="rounded=1;whiteSpace=wrap;html=1;fontStyle=1;fontSize=14;fillColor=#dae8fc;strokeColor=#6c8ebf;" vertex="1" parent="1">
          <mxGeometry x="-713" y="750" width="120" height="60" as="geometry" />
        </mxCell>
        <mxCell id="9LEnUv4450Ojj1wTjqpc-13" style="edgeStyle=orthogonalEdgeStyle;rounded=0;orthogonalLoop=1;jettySize=auto;html=1;exitX=1;exitY=0.5;exitDx=0;exitDy=0;entryX=0;entryY=0.5;entryDx=0;entryDy=0;fontSize=14;" edge="1" parent="1" source="9LEnUv4450Ojj1wTjqpc-14" target="9LEnUv4450Ojj1wTjqpc-16">
          <mxGeometry relative="1" as="geometry" />
        </mxCell>
        <mxCell id="9LEnUv4450Ojj1wTjqpc-14" value="支付宝会&lt;br&gt;回调接口" style="rounded=1;whiteSpace=wrap;html=1;fontStyle=1;fontSize=14;fillColor=#ffe6cc;strokeColor=#d79b00;" vertex="1" parent="1">
          <mxGeometry x="-713" y="940" width="120" height="60" as="geometry" />
        </mxCell>
        <mxCell id="9LEnUv4450Ojj1wTjqpc-15" style="edgeStyle=orthogonalEdgeStyle;rounded=0;orthogonalLoop=1;jettySize=auto;html=1;exitX=1;exitY=0.5;exitDx=0;exitDy=0;entryX=0;entryY=0.5;entryDx=0;entryDy=0;fontSize=14;" edge="1" parent="1" source="9LEnUv4450Ojj1wTjqpc-16" target="9LEnUv4450Ojj1wTjqpc-18">
          <mxGeometry relative="1" as="geometry" />
        </mxCell>
        <mxCell id="9LEnUv4450Ojj1wTjqpc-16" value="更新订单状态" style="rounded=1;whiteSpace=wrap;html=1;fontStyle=1;fontSize=14;fillColor=#ffe6cc;strokeColor=#d79b00;" vertex="1" parent="1">
          <mxGeometry x="-563" y="940" width="120" height="60" as="geometry" />
        </mxCell>
        <mxCell id="9LEnUv4450Ojj1wTjqpc-17" style="edgeStyle=orthogonalEdgeStyle;rounded=0;orthogonalLoop=1;jettySize=auto;html=1;exitX=0.5;exitY=1;exitDx=0;exitDy=0;fontSize=14;" edge="1" parent="1" source="9LEnUv4450Ojj1wTjqpc-18" target="9LEnUv4450Ojj1wTjqpc-23">
          <mxGeometry relative="1" as="geometry" />
        </mxCell>
        <mxCell id="9LEnUv4450Ojj1wTjqpc-18" value="更新系统状态" style="rounded=1;whiteSpace=wrap;html=1;fontStyle=1;fontSize=14;fillColor=#ffe6cc;strokeColor=#d79b00;" vertex="1" parent="1">
          <mxGeometry x="-423" y="940" width="120" height="60" as="geometry" />
        </mxCell>
        <mxCell id="9LEnUv4450Ojj1wTjqpc-19" style="edgeStyle=orthogonalEdgeStyle;rounded=0;orthogonalLoop=1;jettySize=auto;html=1;exitX=1;exitY=0.5;exitDx=0;exitDy=0;entryX=0;entryY=0.5;entryDx=0;entryDy=0;fontSize=14;" edge="1" parent="1" source="9LEnUv4450Ojj1wTjqpc-22" target="9LEnUv4450Ojj1wTjqpc-4">
          <mxGeometry relative="1" as="geometry" />
        </mxCell>
        <mxCell id="9LEnUv4450Ojj1wTjqpc-22" value="开始" style="ellipse;whiteSpace=wrap;html=1;aspect=fixed;fontSize=14;fillColor=#d5e8d4;strokeColor=#82b366;" vertex="1" parent="1">
          <mxGeometry x="-1180" y="930" width="80" height="80" as="geometry" />
        </mxCell>
        <mxCell id="9LEnUv4450Ojj1wTjqpc-23" value="结束" style="ellipse;whiteSpace=wrap;html=1;aspect=fixed;fontSize=14;fillColor=#f8cecc;strokeColor=#b85450;" vertex="1" parent="1">
          <mxGeometry x="-403" y="1060" width="80" height="80" as="geometry" />
        </mxCell>
        <mxCell id="9LEnUv4450Ojj1wTjqpc-24" style="edgeStyle=orthogonalEdgeStyle;rounded=0;orthogonalLoop=1;jettySize=auto;html=1;exitX=0.5;exitY=1;exitDx=0;exitDy=0;entryX=0.5;entryY=0;entryDx=0;entryDy=0;" edge="1" parent="1" source="9LEnUv4450Ojj1wTjqpc-25" target="9LEnUv4450Ojj1wTjqpc-14">
          <mxGeometry relative="1" as="geometry" />
        </mxCell>
        <mxCell id="9LEnUv4450Ojj1wTjqpc-25" value="NATAPP" style="rounded=1;whiteSpace=wrap;html=1;fillColor=#ffe6cc;strokeColor=#d79b00;" vertex="1" parent="1">
          <mxGeometry x="-713" y="859.5" width="120" height="40" as="geometry" />
        </mxCell>
        <mxCell id="9LEnUv4450Ojj1wTjqpc-26" value="购物车 (vuex)&lt;br&gt;&lt;span style=&quot;background-color: initial;&quot;&gt;（1）添加商品&lt;/span&gt;&lt;span style=&quot;background-color: initial;&quot;&gt;（2）删除商品（3)&amp;nbsp; 加减商品数量&lt;/span&gt;&lt;span style=&quot;background-color: initial;&quot;&gt;（4）获取购物车数据&lt;/span&gt;&lt;span style=&quot;background-color: initial;&quot;&gt;&lt;br&gt;&lt;/span&gt;" style="rounded=1;whiteSpace=wrap;html=1;fontStyle=1;fontSize=17;fillColor=#ffe6cc;strokeColor=#d79b00;" vertex="1" parent="1">
          <mxGeometry x="-1190" y="320" width="220" height="130" as="geometry" />
        </mxCell>
        <mxCell id="9LEnUv4450Ojj1wTjqpc-27" value="前端" style="text;html=1;strokeColor=none;fillColor=none;align=center;verticalAlign=middle;whiteSpace=wrap;rounded=0;fontSize=21;" vertex="1" parent="1">
          <mxGeometry x="-1130" y="250" width="100" height="50" as="geometry" />
        </mxCell>
        <mxCell id="9LEnUv4450Ojj1wTjqpc-28" value="购物车表" style="rounded=1;whiteSpace=wrap;html=1;fontStyle=1;fontSize=17;fillColor=#ffe6cc;strokeColor=#d79b00;" vertex="1" parent="1">
          <mxGeometry x="-810" y="340" width="120" height="60" as="geometry" />
        </mxCell>
        <mxCell id="9LEnUv4450Ojj1wTjqpc-29" value="后端" style="text;html=1;strokeColor=none;fillColor=none;align=center;verticalAlign=middle;whiteSpace=wrap;rounded=0;fontSize=21;" vertex="1" parent="1">
          <mxGeometry x="-796" y="270" width="100" height="50" as="geometry" />
        </mxCell>
      </root>
    </mxGraphModel>
  </diagram>
</mxfile>
